<svg width="75" height="40" viewBox="0 0 75 40" fill="none" xmlns="http://www.w3.org/2000/svg">
<path d="M65.1065 13.7916C64.4944 14.0229 63.9919 14.4761 63.699 15.0611L67.5623 15.5532C66.8943 14.7804 66.0527 14.1768 65.1065 13.7916Z" fill="#EBEBEB"/>
<path d="M37.871 16.3503L37.7283 18.2939L44.2443 13.5357L32.1866 14.8643L37.871 16.3503Z" fill="#EBEBEB"/>
<path d="M74.9841 19.1059C74.7823 16.2913 72.7152 13.4472 68.3056 9.94373C68.5172 9.45167 68.6206 7.54735 66.4256 6.39593C60.8938 3.4977 49.0182 0.446921 40.0955 -0.000854492C40.1841 0.235335 40.3908 0.899655 40.5434 1.39172C30.7014 0.992914 20.8437 1.26578 11.0389 2.20849C8.35179 2.46928 0 3.61091 0 3.61091L18.874 11.602C16.8611 12.0497 14.8137 12.5369 12.7565 13.0782C10.6994 13.6194 4.43427 15.7156 4.43427 15.7156L11.9789 17.3443C15.739 18.1513 26.335 20.3902 30.8578 21.4235C30.2574 23.2539 26.3645 35.9245 26.3645 35.9245C26.3645 35.9245 31.409 30.6496 32.9741 29.1734C34.9427 27.2987 35.6219 26.6639 36.2174 26.1768C35.991 28.8733 35.4841 34.6648 35.3512 36.0918C35.2478 37.2334 35.4742 38.4143 36.1386 39.1081C36.5045 39.4393 36.9373 39.6881 37.4077 39.8375C37.8781 39.9869 38.3751 40.0335 38.8651 39.9741C39.7954 39.7903 40.6619 39.3681 41.38 38.7489C44.4166 36.264 52.0302 29.5425 58.4724 23.3622C58.8317 23.308 59.191 23.2589 59.5551 23.2195C63.9845 22.7275 68.2564 23.436 68.9847 25.6208C69.4769 27.0576 68.9848 27.9433 68.5271 29.3162C69.7439 28.227 70.9052 27.0774 72.0065 25.8717C73.2517 24.2922 75.1957 21.9008 74.9841 19.1059ZM30.9464 28.1844C31.8569 24.8777 33.6188 19.6816 33.6188 19.6816C33.6188 19.6816 17.5058 15.9567 12.54 15.0956C27.9099 11.0459 44.9087 9.71243 48.0683 9.47624C47.8518 11.4888 48.4817 13.644 50.4602 14.7462C40.7156 20.0358 36.8079 23.0522 30.9464 28.1844ZM49.6039 9.36307C50.4946 9.4418 51.4839 9.53526 52.478 9.70257C52.7192 11.7348 54.0529 13.6391 56.8139 13.2257C57.283 13.1667 57.7351 13.0127 58.1427 12.7731C57.7982 13.3143 57.0501 13.8359 55.4949 14.0672C51.2919 14.7118 49.5497 11.9316 49.6039 9.36307ZM70.6876 24.6661C69.0979 19.8882 59.2549 20.7296 54.4909 22.255C56.4665 19.5417 58.7196 17.0417 61.2137 14.7954C60.7968 14.8417 60.3828 14.9106 59.9735 15.0021C58.7579 15.9025 51.0557 23.2884 50.0517 24.9023L54.7567 23.8346C48.8902 29.2768 42.5956 34.6993 39.8888 36.9135C38.6781 37.8977 37.3985 37.44 37.5363 35.9294C37.6348 34.8272 38.0285 30.1526 38.0285 30.1526C38.0728 29.6064 38.3877 26.1079 38.5206 24.3069C43.2371 21.0167 48.1883 18.0761 53.3344 15.5089C57.0058 13.6784 59.3386 13.8704 60.2835 12.3204C61.1457 12.4518 62.0246 12.4251 62.8772 12.2416C63.3019 11.8899 63.6517 11.4566 63.9058 10.9672C61.6123 11.4593 58.5758 10.7458 55.2291 8.62498C51.8825 6.5042 43.4963 6.07116 39.874 6.50417C40.0709 6.87814 40.2924 7.39977 40.5532 7.90167H40.4695C35.548 8.44293 29.3962 9.37783 22.7521 10.7113L8.84394 4.64915C23.6085 3.46821 50.9868 0.98818 65.7907 8.66432C66.6667 9.11702 66.7159 10.0766 66.6077 10.7359C66.5861 10.8425 66.5582 10.9477 66.524 11.0509C75.9241 18.3727 73.2861 21.3054 70.6777 24.6809L70.6876 24.6661Z" fill="#EBEBEB"/>
</svg>
