<svg width="27" height="40" viewBox="0 0 27 40" fill="none" xmlns="http://www.w3.org/2000/svg">
<path d="M21.4794 0.170006C21.7197 0.311852 21.9056 0.532481 22.0068 0.79585C22.108 1.05922 22.1185 1.34976 22.0366 1.62001L17.6161 16.25H25.7723C26.012 16.2499 26.2464 16.3213 26.4468 16.4554C26.6471 16.5895 26.8044 16.7803 26.8995 17.0045C26.9945 17.2286 27.023 17.4762 26.9814 17.7166C26.9399 17.9571 26.8301 18.1799 26.6657 18.3575L7.03005 39.6075C6.84006 39.8133 6.58724 39.9475 6.3128 39.9881C6.03835 40.0288 5.75847 39.9736 5.51877 39.8315C5.27907 39.6895 5.09368 39.4689 4.99283 39.2057C4.89198 38.9426 4.8816 38.6524 4.9634 38.3825L9.38388 23.75H1.22772C0.988028 23.7501 0.753556 23.6787 0.553248 23.5446C0.352939 23.4105 0.195563 23.2197 0.100546 22.9955C0.00552887 22.7714 -0.0229687 22.5238 0.0185708 22.2834C0.0601103 22.0429 0.169868 21.8201 0.334296 21.6425L19.9699 0.392506C20.1597 0.187003 20.4121 0.0529272 20.6862 0.0120771C20.9603 -0.028773 21.2398 0.0260054 21.4794 0.167506V0.170006Z" fill="#F4D76D"/>
</svg>
