<svg width="75" height="40" viewBox="0 0 75 40" fill="none" xmlns="http://www.w3.org/2000/svg">
<path d="M74.9867 19.1067C74.7849 16.2921 72.7375 13.448 68.308 9.94454C68.5196 9.45248 68.6229 7.54821 66.4279 6.39679C60.8959 3.49855 49.0199 0.447775 40.0969 0C40.1855 0.236189 40.3922 0.90047 40.5448 1.39253C30.7025 0.993729 20.8444 1.26664 11.0393 2.20935C8.35208 2.47014 0 3.61172 0 3.61172L18.8746 11.6028C16.8617 12.0506 14.8142 12.5377 12.757 13.079C10.6997 13.6202 4.43443 15.7164 4.43443 15.7164L11.9794 17.3451C15.7395 18.1521 26.3359 20.391 30.8589 21.4243C30.2585 23.2548 26.3654 35.9253 26.3654 35.9253C26.3654 35.9253 31.4101 30.6504 32.9752 29.1743C34.9439 27.2995 35.6231 26.6648 36.2186 26.1776C35.9922 28.8741 35.4853 34.6657 35.3524 36.0926C35.2491 37.2342 35.4754 38.4152 36.1399 39.109C36.5058 39.4402 36.9386 39.6889 37.409 39.8383C37.8794 39.9877 38.3765 40.0343 38.8665 39.975C39.7967 39.7911 40.6633 39.3689 41.3815 38.7498C44.4181 36.2649 52.032 29.5433 58.4744 23.363C58.8337 23.3089 59.193 23.2597 59.5572 23.2203C63.9867 22.7283 68.2587 23.4368 68.9871 25.6216C69.4793 27.0584 68.9871 27.9441 68.5294 29.317C69.7463 28.2279 70.9076 27.0783 72.009 25.8725C73.2542 24.3324 75.1786 21.9361 74.9867 19.1461" fill="#1D1D1B"/>
<path d="M40.466 7.9517H40.5496C40.2888 7.45964 40.0575 6.92822 39.8704 6.55425C43.4928 6.12124 51.8793 6.55425 55.2261 8.67503C58.5728 10.7958 61.6242 11.5191 63.903 11.0172C63.6541 11.5031 63.3112 11.9346 62.894 12.2868C62.0414 12.4703 61.1625 12.4969 60.3003 12.3655C59.3504 13.9155 57.0225 13.7236 53.3509 15.554C48.2046 18.1213 43.2533 21.0618 38.5367 24.3521C38.389 26.153 38.074 29.6516 38.0445 30.1978L45.2892 27.5702L43.8127 26.3351L50.0288 24.9229C51.0131 23.3089 58.7352 15.9231 59.9509 15.0226C60.3602 14.9312 60.7743 14.8622 61.1911 14.8159C62.8038 13.3651 64.5871 12.1159 66.5016 11.096C66.5358 10.9928 66.5637 10.8876 66.5853 10.781C66.6936 10.1217 66.6444 9.16217 65.7683 8.70947C50.9639 1.03333 23.5698 3.51332 8.81958 4.69426L22.7332 10.7614C29.3922 9.4082 35.5295 8.49297 40.4512 7.9517" fill="#EBEBEB"/>
<path d="M43.8176 26.34L45.2941 27.575L38.015 30.1977C38.015 30.1977 37.6212 34.8723 37.5228 35.9745C37.385 37.4507 38.6646 37.9428 39.8754 36.9586C42.5823 34.7444 48.8771 29.3219 54.7437 23.8797L43.8176 26.34Z" fill="#EBEBEB"/>
<path d="M56.8059 13.2414C54.0449 13.6793 52.7111 11.7652 52.4699 9.71822C51.4856 9.55092 50.5013 9.45742 49.5957 9.37869C49.5514 11.9325 51.2936 14.7126 55.5017 14.0828C57.0569 13.8515 57.805 13.3299 58.1495 12.7887C57.7419 13.0283 57.2898 13.1823 56.8207 13.2414" fill="#EBEBEB"/>
<path d="M66.5066 11.1009C60.7334 14.0532 56.0923 20.081 54.4829 22.2706C59.2471 20.7354 69.0904 19.9038 70.6801 24.6817C73.2886 21.3062 75.9266 18.3735 66.5066 11.1009ZM63.7012 15.0373C63.999 14.4616 64.5009 14.0177 65.1088 13.7924C66.0563 14.1755 66.8996 14.7775 67.5696 15.5491L63.7012 15.0373Z" fill="#EBEBEB"/>
<path d="M50.4669 14.747C48.4983 13.6448 47.8585 11.4896 48.075 9.47708C44.9153 9.71327 27.8961 11.0468 12.5454 15.0964C17.5114 15.9575 33.625 19.6824 33.625 19.6824C33.625 19.6824 31.863 24.8786 30.9525 28.1852C36.8585 23.053 40.722 20.0367 50.4719 14.747H50.4669ZM32.1878 14.8651L44.2509 13.5366L37.7346 18.2948L37.8724 16.3266L32.1878 14.8651Z" fill="#E30613"/>
</svg>
