<svg width="27" height="41" viewBox="0 0 27 41" fill="none" xmlns="http://www.w3.org/2000/svg">
<path d="M21.4794 0.225294C21.7197 0.367132 21.9056 0.587748 22.0068 0.851102C22.108 1.11446 22.1185 1.40498 22.0366 1.67521L17.6161 16.3044H25.7723C26.012 16.3043 26.2464 16.3757 26.4468 16.5097C26.6471 16.6438 26.8044 16.8347 26.8995 17.0588C26.9945 17.2829 27.023 17.5305 26.9814 17.7709C26.9399 18.0114 26.8301 18.2341 26.6657 18.4118L7.03005 39.6606C6.84006 39.8663 6.58724 40.0005 6.3128 40.0412C6.03835 40.0818 5.75847 40.0267 5.51877 39.8846C5.27907 39.7425 5.09368 39.5219 4.99283 39.2588C4.89198 38.9957 4.8816 38.7055 4.9634 38.4356L9.38388 23.804H1.22772C0.988028 23.8041 0.753556 23.7327 0.553248 23.5986C0.352939 23.4645 0.195563 23.2736 0.100546 23.0495C0.00552887 22.8254 -0.0229687 22.5778 0.0185708 22.3374C0.0601103 22.097 0.169868 21.8742 0.334296 21.6966L19.9699 0.447781C20.1597 0.242291 20.4121 0.108222 20.6862 0.0673742C20.9603 0.0265264 21.2398 0.0813017 21.4794 0.222794V0.225294ZM4.06752 21.3041H11.0455C11.2376 21.3041 11.427 21.3499 11.5985 21.438C11.7699 21.5261 11.9187 21.654 12.0328 21.8113C12.147 21.9686 12.2232 22.151 12.2555 22.3439C12.2878 22.5367 12.2752 22.7345 12.2188 22.9215L8.86108 34.0284L22.93 18.8042H15.9545C15.7624 18.8043 15.573 18.7584 15.4015 18.6703C15.2301 18.5822 15.0813 18.4544 14.9671 18.297C14.853 18.1397 14.7768 17.9573 14.7445 17.7645C14.7122 17.5716 14.7248 17.3738 14.7812 17.1868L18.1389 6.07996L4.06752 21.3041Z" fill="#EBEBEB"/>
</svg>
