<svg width="458" height="118" viewBox="0 0 458 118" fill="none" xmlns="http://www.w3.org/2000/svg">
<g filter="url(#filter0_d_92_233)">
<path d="M240.605 92.3411L248.508 51.4707H286.92L280.898 60.6501H258.854L254.003 85.6997C253.624 87.5554 252.616 89.2239 251.149 90.4245C249.683 91.6251 247.847 92.2845 245.951 92.2917L240.605 92.3411Z" fill="#F5F0E0"/>
</g>
<g filter="url(#filter1_d_92_233)">
<path d="M58.7744 51.4707H33.0343L32.7869 52.1628C35.3774 53.1351 39.1393 55.1787 37.1923 58.3923L14.9998 92.3411H24.1243C25.5208 92.3383 26.8937 91.9815 28.1144 91.3042C29.3351 90.6268 30.3637 89.6511 31.1038 88.4683L32.8363 85.6997H55.5074L57.1574 92.2917H69.9449L58.7744 51.4707ZM38.0173 77.3608L47.9174 61.3257H49.3034L53.3294 77.3608H38.0173Z" fill="#F5F0E0"/>
</g>
<g filter="url(#filter2_d_92_233)">
<path d="M168.582 51.4707H142.941C142.859 51.7014 142.776 51.9321 142.71 52.1628C145.103 53.0692 148.502 54.8821 147.429 57.7002L124.791 92.3082H133.932C135.326 92.3026 136.695 91.9444 137.913 91.2672C139.13 90.59 140.156 89.6157 140.895 88.4353L142.628 85.6667H165.299L166.949 92.2587H179.736L168.582 51.4707ZM147.809 77.3772L157.791 61.3422H159.161L163.203 77.3772H147.809Z" fill="#F5F0E0"/>
</g>
<g filter="url(#filter3_d_92_233)">
<path d="M317.957 51.4707H292.233L291.986 52.1628C294.527 53.1186 298.173 55.0963 296.474 58.211L274.166 92.3411H283.307C284.7 92.3355 286.07 91.9775 287.288 91.3002C288.505 90.623 289.531 89.6487 290.27 88.4683L292.002 85.6997H314.673L316.323 92.2917H329.111L317.957 51.4707ZM297.183 77.3772L307.166 61.3422H308.535L312.578 77.3772H297.183Z" fill="#F5F0E0"/>
</g>
<g filter="url(#filter4_d_92_233)">
<path d="M434.464 84.0022L440.767 51.4707H393.923L393.676 52.1628C396.217 53.1186 399.236 54.8491 398.147 58.1451L387.686 84.0187H380.08L377.192 98.9991H382.538C384.434 98.9919 386.27 98.3324 387.737 97.1318C389.203 95.9312 390.211 94.2627 390.59 92.4071H429.002L427.715 98.9991H439.826L442.73 84.0187L434.464 84.0022ZM422.336 84.0022H400.886L410.687 59.7931H427.055L422.336 84.0022Z" fill="#F5F0E0"/>
</g>
<g filter="url(#filter5_d_92_233)">
<path d="M119.643 70.6863L118.868 70.4557L119.016 69.8953L119.775 69.6976C121.439 69.2575 122.944 68.3545 124.115 67.0937C125.026 66.1276 125.737 64.9911 126.207 63.7495C126.677 62.5079 126.897 61.1858 126.854 59.859C126.854 52.921 120.254 51.4542 114.726 51.4542H76.8749C76.7924 51.6849 76.7099 51.9156 76.6439 52.1463C79.2179 53.1186 81.7259 54.7007 81.0329 58.3428L74.4329 92.3411H108.44C114.479 92.3411 118.785 90.8249 121.64 87.6937C123.839 85.1226 124.972 81.8097 124.808 78.432C124.791 74.5427 123.059 71.7081 119.643 70.6863ZM110.238 82.2224C109.621 82.9145 108.855 83.458 107.998 83.8119C107.141 84.1659 106.214 84.3211 105.288 84.266H88.1444L89.9595 74.9217H106.806C107.961 74.9217 111.459 74.9218 111.459 78.465C111.533 79.8254 111.098 81.1647 110.238 82.2224ZM111.888 66.2368C111.349 66.8135 110.69 67.2656 109.957 67.5616C109.225 67.8577 108.437 67.9905 107.648 67.9507H91.3455L92.9955 59.5623H109.001C111.806 59.5623 113.241 60.6665 113.241 62.8583C113.242 64.1359 112.758 65.3664 111.888 66.3027V66.2368Z" fill="#F5F0E0"/>
</g>
<g filter="url(#filter6_d_92_233)">
<path d="M227.652 51.4707L224.633 66.8794H201.335L204.338 51.4707H186.716L186.468 52.1628C189.059 53.1351 191.567 54.7173 190.874 58.3923L184.274 92.3576H189.636C191.532 92.3504 193.368 91.691 194.835 90.4904C196.301 89.2898 197.309 87.6213 197.688 85.7656L199.586 76.1412H222.884L219.699 92.44H231.827L239.78 51.4707H227.652Z" fill="#F5F0E0"/>
</g>
<g filter="url(#filter7_d_92_233)">
<path d="M371.929 51.4707H336.041C335.959 51.7014 335.876 51.9321 335.81 52.1628C338.401 53.1351 340.909 54.7173 340.199 58.3923L333.599 92.3576H338.945C340.841 92.3504 342.677 91.691 344.144 90.4904C345.61 89.2898 346.618 87.6212 346.997 85.7656L348.35 78.7616H367.177C374.074 78.7616 378.958 76.9817 382.027 73.2902C384.614 70.0191 385.917 65.9169 385.69 61.7542C385.789 54.7667 381.383 51.4707 371.929 51.4707ZM370.84 68.099C370.197 68.9334 369.357 69.5957 368.395 70.0271C367.434 70.4584 366.38 70.6454 365.329 70.571H349.967L351.964 60.3863H367.028C370.328 60.3863 372.11 61.6718 372.11 64.2097C372.114 65.6033 371.668 66.9612 370.84 68.0825V68.099Z" fill="#F5F0E0"/>
</g>
<g filter="url(#filter8_d_92_233)">
<path d="M78.327 32.9472L74.3669 24.7072L72.4035 26.6848L71.0174 32.8812H65.5394L70.2254 11.655H75.7035L73.8884 19.895L81.9569 11.655H89.0025L78.5744 21.543L84.762 32.8318L78.327 32.9472Z" fill="#F5F0E0"/>
</g>
<g filter="url(#filter9_d_92_233)">
<path d="M87.6495 32.9472L92.3355 11.7209H97.7475L95.1075 23.7843L106.361 11.7209H112.037L107.351 32.9472H101.84L104.644 20.2905L92.88 32.9472H87.6495Z" fill="#F5F0E0"/>
</g>
<g filter="url(#filter10_d_92_233)">
<path d="M133.767 11.7209L132.711 16.5001H121.59L120.98 19.2358H125.088C129.741 19.2358 132.134 21.9056 132.134 25.1522C132.134 28.3987 130.071 32.9472 123.092 32.9472H112.499L117.152 11.7209H133.767ZM119.924 24.015L119.033 28.1844H123.537C125.352 28.1844 126.458 27.1297 126.458 25.7619C126.476 25.5133 126.437 25.2637 126.345 25.0321C126.253 24.8004 126.109 24.5926 125.925 24.4244C125.741 24.2562 125.521 24.132 125.281 24.0611C125.042 23.9902 124.79 23.9745 124.544 24.015H119.924Z" fill="#F5F0E0"/>
</g>
<g filter="url(#filter11_d_92_233)">
<path d="M134.262 32.9472L138.998 11.7209H154.59L153.501 16.5001H143.436L142.694 19.7961H152.594L151.538 24.5588H141.638L140.846 28.1679H150.944L149.904 32.9307L134.262 32.9472Z" fill="#F5F0E0"/>
</g>
<g filter="url(#filter12_d_92_233)">
<path d="M154.31 32.9472L158.996 11.7209H169.275C170.091 11.6872 170.906 11.8201 171.669 12.1117C172.432 12.4032 173.128 12.8472 173.713 13.4165C174.298 13.9857 174.761 14.6682 175.074 15.4223C175.386 16.1763 175.541 16.9861 175.529 17.802C175.529 20.9167 173.45 25.8278 166.437 25.8278H161.339L159.788 32.9472H154.31ZM166.734 21.0485C167.114 21.087 167.497 21.0487 167.861 20.9359C168.225 20.8231 168.563 20.638 168.854 20.3919C169.145 20.1458 169.384 19.8436 169.555 19.5033C169.727 19.1631 169.828 18.7919 169.853 18.4118C169.85 18.137 169.789 17.8658 169.674 17.6161C169.559 17.3665 169.393 17.1441 169.185 16.9634C168.978 16.7828 168.735 16.6481 168.472 16.5682C168.208 16.4884 167.931 16.4652 167.658 16.5001H163.418L162.395 21.0485H166.734Z" fill="#F5F0E0"/>
</g>
<g filter="url(#filter13_d_92_233)">
<path d="M176.948 23.6854C176.92 22.0414 177.227 20.4089 177.851 18.8875C178.475 17.3661 179.403 15.9875 180.578 14.8357C181.753 13.6839 183.15 12.7831 184.685 12.1881C186.219 11.5931 187.859 11.3163 189.504 11.3747C191.655 11.2081 193.799 11.7672 195.594 12.9624C197.389 14.1576 198.731 15.9197 199.404 17.9667L194.108 19.6148C193.813 18.5864 193.178 17.6885 192.305 17.0686C191.433 16.4487 190.375 16.1435 189.306 16.2034C188.403 16.2373 187.516 16.4491 186.695 16.8264C185.874 17.2037 185.135 17.7393 184.522 18.4023C183.909 19.0653 183.433 19.8427 183.121 20.6899C182.81 21.5371 182.668 22.4374 182.706 23.3393C182.691 24.0391 182.822 24.7345 183.089 25.3813C183.357 26.0282 183.757 26.6126 184.262 27.0974C184.768 27.5823 185.369 27.9571 186.027 28.1981C186.685 28.4391 187.386 28.541 188.085 28.4975C188.993 28.4727 189.882 28.2381 190.684 27.812C191.486 27.386 192.177 26.7801 192.705 26.042L196.979 28.8436C195.908 30.2661 194.516 31.4153 192.916 32.1973C191.316 32.9792 189.553 33.3717 187.772 33.3426C181.799 33.3426 176.948 29.6182 176.948 23.6854Z" fill="#F5F0E0"/>
</g>
<g filter="url(#filter14_d_92_233)">
<path d="M213.693 32.9472L217.323 16.4672H208.496L204.866 32.9472H199.388L204.074 11.7209H223.874L219.188 32.9472H213.693Z" fill="#F5F0E0"/>
</g>
<g filter="url(#filter15_d_92_233)">
<path d="M225.227 23.6854C225.215 22.046 225.534 20.4209 226.164 18.9069C226.793 17.393 227.722 16.0209 228.893 14.8724C230.064 13.724 231.455 12.8225 232.982 12.2216C234.51 11.6207 236.142 11.3327 237.783 11.3748C243.855 11.3748 248.541 15.1981 248.541 20.9497C248.557 22.5941 248.242 24.225 247.615 25.7455C246.987 27.266 246.061 28.645 244.89 29.8009C243.718 30.9568 242.327 31.866 240.797 32.4744C239.267 33.0828 237.631 33.378 235.985 33.3426C229.913 33.3426 225.227 29.5193 225.227 23.6854ZM242.849 21.3617C242.867 20.6596 242.737 19.9617 242.469 19.3124C242.201 18.6632 241.801 18.0769 241.293 17.5913C240.785 17.1057 240.181 16.7315 239.52 16.4925C238.859 16.2535 238.155 16.155 237.453 16.2034C236.547 16.2286 235.656 16.4344 234.831 16.8087C234.006 17.1831 233.264 17.7185 232.649 18.3833C232.034 19.0481 231.558 19.8291 231.25 20.6802C230.942 21.5313 230.807 22.4354 230.853 23.3393C230.836 24.0413 230.965 24.7394 231.233 25.3886C231.501 26.0379 231.901 26.624 232.409 27.1096C232.917 27.5952 233.521 27.9695 234.182 28.2085C234.843 28.4475 235.547 28.5459 236.249 28.4975C237.155 28.4724 238.046 28.2665 238.871 27.8922C239.696 27.5178 240.438 26.9825 241.053 26.3176C241.668 25.6528 242.144 24.8718 242.452 24.0207C242.76 23.1696 242.895 22.2656 242.849 21.3617Z" fill="#F5F0E0"/>
</g>
<g filter="url(#filter16_d_92_233)">
<path d="M249.944 32.9472L254.63 11.7209H264.926C265.741 11.6895 266.554 11.8242 267.315 12.1167C268.076 12.4093 268.769 12.8536 269.353 13.4226C269.936 13.9916 270.398 14.6734 270.709 15.4263C271.02 16.1792 271.175 16.9876 271.163 17.802C271.163 20.9168 269.1 25.8278 262.088 25.8278H256.989L255.422 32.9472H249.944ZM262.368 21.0486C262.749 21.087 263.133 21.0489 263.498 20.9362C263.863 20.8236 264.202 20.6388 264.494 20.3928C264.787 20.1469 265.027 19.8449 265.2 19.5046C265.373 19.1643 265.477 18.7927 265.503 18.4118C265.501 18.1354 265.44 17.8627 265.324 17.6117C265.208 17.3608 265.04 17.1374 264.831 16.9565C264.621 16.7756 264.376 16.6413 264.111 16.5626C263.845 16.4839 263.566 16.4627 263.292 16.5002H259.052L258.045 21.0486H262.368Z" fill="#F5F0E0"/>
</g>
<g filter="url(#filter17_d_92_233)">
<path d="M276.443 32.9472L280.056 16.4671H274.1L275.172 11.6879H292.547L291.491 16.4671H285.534L281.937 32.9472H276.443Z" fill="#F5F0E0"/>
</g>
<g filter="url(#filter18_d_92_233)">
<path d="M315.861 32.9472L315.482 29.8983H307.1L305.45 32.9472H298.949L311.621 11.7209H318.518L321.818 32.9472H315.861ZM314.112 17.1263L309.641 25.1027H315.069L314.112 17.1263Z" fill="#F5F0E0"/>
</g>
<g filter="url(#filter19_d_92_233)">
<path d="M324.656 32.9472L329.342 11.7209H339.638C340.453 11.6895 341.266 11.8242 342.027 12.1167C342.788 12.4093 343.481 12.8536 344.065 13.4226C344.649 13.9916 345.11 14.6734 345.421 15.4263C345.732 16.1792 345.887 16.9876 345.875 17.802C345.875 20.9168 343.812 25.8278 336.8 25.8278H331.701L330.051 32.9472H324.656ZM337.08 21.0486C337.46 21.087 337.843 21.0487 338.207 20.9359C338.572 20.8231 338.909 20.6381 339.201 20.3919C339.492 20.1458 339.73 19.8436 339.902 19.5034C340.073 19.1631 340.174 18.7919 340.199 18.4118C340.197 18.137 340.136 17.8658 340.021 17.6162C339.906 17.3665 339.739 17.1441 339.532 16.9635C339.324 16.7828 339.081 16.6481 338.818 16.5683C338.555 16.4884 338.277 16.4652 338.004 16.5002H333.698L332.675 21.0486H337.08Z" fill="#F5F0E0"/>
</g>
<g filter="url(#filter20_d_92_233)">
<path d="M346.419 32.9472L351.105 11.7209H366.698L365.609 16.5001H355.544L354.801 19.7961H364.701L363.662 24.5588H353.762L352.97 28.1679H363.068L362.012 32.9307L346.419 32.9472Z" fill="#F5F0E0"/>
</g>
<g filter="url(#filter21_d_92_233)">
<path d="M380.756 32.9472L382.637 24.427H373.81L371.929 32.9472H366.451L371.137 11.7209H376.598L374.948 19.6478H383.776L385.525 11.7209H391.003L386.333 32.9472H380.756Z" fill="#F5F0E0"/>
</g>
<g filter="url(#filter22_d_92_233)">
<path d="M406.034 32.9472L405.638 29.8983H397.256L395.606 32.9472H389.105L401.794 11.7209H408.674L411.974 32.9472H406.034ZM404.269 17.1263L399.814 25.1192H405.226L404.269 17.1263Z" fill="#F5F0E0"/>
</g>
<defs>
<filter id="filter0_d_92_233" x="225.605" y="40.4707" width="76.3156" height="70.8704" filterUnits="userSpaceOnUse" color-interpolation-filters="sRGB">
<feFlood flood-opacity="0" result="BackgroundImageFix"/>
<feColorMatrix in="SourceAlpha" type="matrix" values="0 0 0 0 0 0 0 0 0 0 0 0 0 0 0 0 0 0 127 0" result="hardAlpha"/>
<feOffset dy="4"/>
<feGaussianBlur stdDeviation="7.5"/>
<feComposite in2="hardAlpha" operator="out"/>
<feColorMatrix type="matrix" values="0 0 0 0 0 0 0 0 0 0 0 0 0 0 0 0 0 0 0.25 0"/>
<feBlend mode="normal" in2="BackgroundImageFix" result="effect1_dropShadow_92_233"/>
<feBlend mode="normal" in="SourceGraphic" in2="effect1_dropShadow_92_233" result="shape"/>
</filter>
<filter id="filter1_d_92_233" x="-0.000183105" y="40.4707" width="84.9451" height="70.8704" filterUnits="userSpaceOnUse" color-interpolation-filters="sRGB">
<feFlood flood-opacity="0" result="BackgroundImageFix"/>
<feColorMatrix in="SourceAlpha" type="matrix" values="0 0 0 0 0 0 0 0 0 0 0 0 0 0 0 0 0 0 127 0" result="hardAlpha"/>
<feOffset dy="4"/>
<feGaussianBlur stdDeviation="7.5"/>
<feComposite in2="hardAlpha" operator="out"/>
<feColorMatrix type="matrix" values="0 0 0 0 0 0 0 0 0 0 0 0 0 0 0 0 0 0 0.25 0"/>
<feBlend mode="normal" in2="BackgroundImageFix" result="effect1_dropShadow_92_233"/>
<feBlend mode="normal" in="SourceGraphic" in2="effect1_dropShadow_92_233" result="shape"/>
</filter>
<filter id="filter2_d_92_233" x="109.791" y="40.4707" width="84.9451" height="70.8375" filterUnits="userSpaceOnUse" color-interpolation-filters="sRGB">
<feFlood flood-opacity="0" result="BackgroundImageFix"/>
<feColorMatrix in="SourceAlpha" type="matrix" values="0 0 0 0 0 0 0 0 0 0 0 0 0 0 0 0 0 0 127 0" result="hardAlpha"/>
<feOffset dy="4"/>
<feGaussianBlur stdDeviation="7.5"/>
<feComposite in2="hardAlpha" operator="out"/>
<feColorMatrix type="matrix" values="0 0 0 0 0 0 0 0 0 0 0 0 0 0 0 0 0 0 0.25 0"/>
<feBlend mode="normal" in2="BackgroundImageFix" result="effect1_dropShadow_92_233"/>
<feBlend mode="normal" in="SourceGraphic" in2="effect1_dropShadow_92_233" result="shape"/>
</filter>
<filter id="filter3_d_92_233" x="259.166" y="40.4707" width="84.9451" height="70.8704" filterUnits="userSpaceOnUse" color-interpolation-filters="sRGB">
<feFlood flood-opacity="0" result="BackgroundImageFix"/>
<feColorMatrix in="SourceAlpha" type="matrix" values="0 0 0 0 0 0 0 0 0 0 0 0 0 0 0 0 0 0 127 0" result="hardAlpha"/>
<feOffset dy="4"/>
<feGaussianBlur stdDeviation="7.5"/>
<feComposite in2="hardAlpha" operator="out"/>
<feColorMatrix type="matrix" values="0 0 0 0 0 0 0 0 0 0 0 0 0 0 0 0 0 0 0.25 0"/>
<feBlend mode="normal" in2="BackgroundImageFix" result="effect1_dropShadow_92_233"/>
<feBlend mode="normal" in="SourceGraphic" in2="effect1_dropShadow_92_233" result="shape"/>
</filter>
<filter id="filter4_d_92_233" x="362.192" y="40.4707" width="95.5382" height="77.5284" filterUnits="userSpaceOnUse" color-interpolation-filters="sRGB">
<feFlood flood-opacity="0" result="BackgroundImageFix"/>
<feColorMatrix in="SourceAlpha" type="matrix" values="0 0 0 0 0 0 0 0 0 0 0 0 0 0 0 0 0 0 127 0" result="hardAlpha"/>
<feOffset dy="4"/>
<feGaussianBlur stdDeviation="7.5"/>
<feComposite in2="hardAlpha" operator="out"/>
<feColorMatrix type="matrix" values="0 0 0 0 0 0 0 0 0 0 0 0 0 0 0 0 0 0 0.25 0"/>
<feBlend mode="normal" in2="BackgroundImageFix" result="effect1_dropShadow_92_233"/>
<feBlend mode="normal" in="SourceGraphic" in2="effect1_dropShadow_92_233" result="shape"/>
</filter>
<filter id="filter5_d_92_233" x="59.4329" y="40.4542" width="82.426" height="70.8869" filterUnits="userSpaceOnUse" color-interpolation-filters="sRGB">
<feFlood flood-opacity="0" result="BackgroundImageFix"/>
<feColorMatrix in="SourceAlpha" type="matrix" values="0 0 0 0 0 0 0 0 0 0 0 0 0 0 0 0 0 0 127 0" result="hardAlpha"/>
<feOffset dy="4"/>
<feGaussianBlur stdDeviation="7.5"/>
<feComposite in2="hardAlpha" operator="out"/>
<feColorMatrix type="matrix" values="0 0 0 0 0 0 0 0 0 0 0 0 0 0 0 0 0 0 0.25 0"/>
<feBlend mode="normal" in2="BackgroundImageFix" result="effect1_dropShadow_92_233"/>
<feBlend mode="normal" in="SourceGraphic" in2="effect1_dropShadow_92_233" result="shape"/>
</filter>
<filter id="filter6_d_92_233" x="169.274" y="40.4707" width="85.5061" height="70.9693" filterUnits="userSpaceOnUse" color-interpolation-filters="sRGB">
<feFlood flood-opacity="0" result="BackgroundImageFix"/>
<feColorMatrix in="SourceAlpha" type="matrix" values="0 0 0 0 0 0 0 0 0 0 0 0 0 0 0 0 0 0 127 0" result="hardAlpha"/>
<feOffset dy="4"/>
<feGaussianBlur stdDeviation="7.5"/>
<feComposite in2="hardAlpha" operator="out"/>
<feColorMatrix type="matrix" values="0 0 0 0 0 0 0 0 0 0 0 0 0 0 0 0 0 0 0.25 0"/>
<feBlend mode="normal" in2="BackgroundImageFix" result="effect1_dropShadow_92_233"/>
<feBlend mode="normal" in="SourceGraphic" in2="effect1_dropShadow_92_233" result="shape"/>
</filter>
<filter id="filter7_d_92_233" x="318.599" y="40.4707" width="82.116" height="70.8869" filterUnits="userSpaceOnUse" color-interpolation-filters="sRGB">
<feFlood flood-opacity="0" result="BackgroundImageFix"/>
<feColorMatrix in="SourceAlpha" type="matrix" values="0 0 0 0 0 0 0 0 0 0 0 0 0 0 0 0 0 0 127 0" result="hardAlpha"/>
<feOffset dy="4"/>
<feGaussianBlur stdDeviation="7.5"/>
<feComposite in2="hardAlpha" operator="out"/>
<feColorMatrix type="matrix" values="0 0 0 0 0 0 0 0 0 0 0 0 0 0 0 0 0 0 0.25 0"/>
<feBlend mode="normal" in2="BackgroundImageFix" result="effect1_dropShadow_92_233"/>
<feBlend mode="normal" in="SourceGraphic" in2="effect1_dropShadow_92_233" result="shape"/>
</filter>
<filter id="filter8_d_92_233" x="50.5394" y="0.655014" width="53.463" height="51.2922" filterUnits="userSpaceOnUse" color-interpolation-filters="sRGB">
<feFlood flood-opacity="0" result="BackgroundImageFix"/>
<feColorMatrix in="SourceAlpha" type="matrix" values="0 0 0 0 0 0 0 0 0 0 0 0 0 0 0 0 0 0 127 0" result="hardAlpha"/>
<feOffset dy="4"/>
<feGaussianBlur stdDeviation="7.5"/>
<feComposite in2="hardAlpha" operator="out"/>
<feColorMatrix type="matrix" values="0 0 0 0 0 0 0 0 0 0 0 0 0 0 0 0 0 0 0.25 0"/>
<feBlend mode="normal" in2="BackgroundImageFix" result="effect1_dropShadow_92_233"/>
<feBlend mode="normal" in="SourceGraphic" in2="effect1_dropShadow_92_233" result="shape"/>
</filter>
<filter id="filter9_d_92_233" x="72.6495" y="0.720901" width="54.387" height="51.2263" filterUnits="userSpaceOnUse" color-interpolation-filters="sRGB">
<feFlood flood-opacity="0" result="BackgroundImageFix"/>
<feColorMatrix in="SourceAlpha" type="matrix" values="0 0 0 0 0 0 0 0 0 0 0 0 0 0 0 0 0 0 127 0" result="hardAlpha"/>
<feOffset dy="4"/>
<feGaussianBlur stdDeviation="7.5"/>
<feComposite in2="hardAlpha" operator="out"/>
<feColorMatrix type="matrix" values="0 0 0 0 0 0 0 0 0 0 0 0 0 0 0 0 0 0 0.25 0"/>
<feBlend mode="normal" in2="BackgroundImageFix" result="effect1_dropShadow_92_233"/>
<feBlend mode="normal" in="SourceGraphic" in2="effect1_dropShadow_92_233" result="shape"/>
</filter>
<filter id="filter10_d_92_233" x="97.4985" y="0.720901" width="51.2685" height="51.2263" filterUnits="userSpaceOnUse" color-interpolation-filters="sRGB">
<feFlood flood-opacity="0" result="BackgroundImageFix"/>
<feColorMatrix in="SourceAlpha" type="matrix" values="0 0 0 0 0 0 0 0 0 0 0 0 0 0 0 0 0 0 127 0" result="hardAlpha"/>
<feOffset dy="4"/>
<feGaussianBlur stdDeviation="7.5"/>
<feComposite in2="hardAlpha" operator="out"/>
<feColorMatrix type="matrix" values="0 0 0 0 0 0 0 0 0 0 0 0 0 0 0 0 0 0 0.25 0"/>
<feBlend mode="normal" in2="BackgroundImageFix" result="effect1_dropShadow_92_233"/>
<feBlend mode="normal" in="SourceGraphic" in2="effect1_dropShadow_92_233" result="shape"/>
</filter>
<filter id="filter11_d_92_233" x="119.262" y="0.720901" width="50.3281" height="51.2263" filterUnits="userSpaceOnUse" color-interpolation-filters="sRGB">
<feFlood flood-opacity="0" result="BackgroundImageFix"/>
<feColorMatrix in="SourceAlpha" type="matrix" values="0 0 0 0 0 0 0 0 0 0 0 0 0 0 0 0 0 0 127 0" result="hardAlpha"/>
<feOffset dy="4"/>
<feGaussianBlur stdDeviation="7.5"/>
<feComposite in2="hardAlpha" operator="out"/>
<feColorMatrix type="matrix" values="0 0 0 0 0 0 0 0 0 0 0 0 0 0 0 0 0 0 0.25 0"/>
<feBlend mode="normal" in2="BackgroundImageFix" result="effect1_dropShadow_92_233"/>
<feBlend mode="normal" in="SourceGraphic" in2="effect1_dropShadow_92_233" result="shape"/>
</filter>
<filter id="filter12_d_92_233" x="139.31" y="0.715767" width="51.2197" height="51.2314" filterUnits="userSpaceOnUse" color-interpolation-filters="sRGB">
<feFlood flood-opacity="0" result="BackgroundImageFix"/>
<feColorMatrix in="SourceAlpha" type="matrix" values="0 0 0 0 0 0 0 0 0 0 0 0 0 0 0 0 0 0 127 0" result="hardAlpha"/>
<feOffset dy="4"/>
<feGaussianBlur stdDeviation="7.5"/>
<feComposite in2="hardAlpha" operator="out"/>
<feColorMatrix type="matrix" values="0 0 0 0 0 0 0 0 0 0 0 0 0 0 0 0 0 0 0.25 0"/>
<feBlend mode="normal" in2="BackgroundImageFix" result="effect1_dropShadow_92_233"/>
<feBlend mode="normal" in="SourceGraphic" in2="effect1_dropShadow_92_233" result="shape"/>
</filter>
<filter id="filter13_d_92_233" x="161.946" y="0.345909" width="52.4583" height="51.9982" filterUnits="userSpaceOnUse" color-interpolation-filters="sRGB">
<feFlood flood-opacity="0" result="BackgroundImageFix"/>
<feColorMatrix in="SourceAlpha" type="matrix" values="0 0 0 0 0 0 0 0 0 0 0 0 0 0 0 0 0 0 127 0" result="hardAlpha"/>
<feOffset dy="4"/>
<feGaussianBlur stdDeviation="7.5"/>
<feComposite in2="hardAlpha" operator="out"/>
<feColorMatrix type="matrix" values="0 0 0 0 0 0 0 0 0 0 0 0 0 0 0 0 0 0 0.25 0"/>
<feBlend mode="normal" in2="BackgroundImageFix" result="effect1_dropShadow_92_233"/>
<feBlend mode="normal" in="SourceGraphic" in2="effect1_dropShadow_92_233" result="shape"/>
</filter>
<filter id="filter14_d_92_233" x="184.388" y="0.720901" width="54.4861" height="51.2263" filterUnits="userSpaceOnUse" color-interpolation-filters="sRGB">
<feFlood flood-opacity="0" result="BackgroundImageFix"/>
<feColorMatrix in="SourceAlpha" type="matrix" values="0 0 0 0 0 0 0 0 0 0 0 0 0 0 0 0 0 0 127 0" result="hardAlpha"/>
<feOffset dy="4"/>
<feGaussianBlur stdDeviation="7.5"/>
<feComposite in2="hardAlpha" operator="out"/>
<feColorMatrix type="matrix" values="0 0 0 0 0 0 0 0 0 0 0 0 0 0 0 0 0 0 0.25 0"/>
<feBlend mode="normal" in2="BackgroundImageFix" result="effect1_dropShadow_92_233"/>
<feBlend mode="normal" in="SourceGraphic" in2="effect1_dropShadow_92_233" result="shape"/>
</filter>
<filter id="filter15_d_92_233" x="210.226" y="0.37075" width="53.3154" height="51.9747" filterUnits="userSpaceOnUse" color-interpolation-filters="sRGB">
<feFlood flood-opacity="0" result="BackgroundImageFix"/>
<feColorMatrix in="SourceAlpha" type="matrix" values="0 0 0 0 0 0 0 0 0 0 0 0 0 0 0 0 0 0 127 0" result="hardAlpha"/>
<feOffset dy="4"/>
<feGaussianBlur stdDeviation="7.5"/>
<feComposite in2="hardAlpha" operator="out"/>
<feColorMatrix type="matrix" values="0 0 0 0 0 0 0 0 0 0 0 0 0 0 0 0 0 0 0.25 0"/>
<feBlend mode="normal" in2="BackgroundImageFix" result="effect1_dropShadow_92_233"/>
<feBlend mode="normal" in="SourceGraphic" in2="effect1_dropShadow_92_233" result="shape"/>
</filter>
<filter id="filter16_d_92_233" x="234.944" y="0.716454" width="51.2197" height="51.2307" filterUnits="userSpaceOnUse" color-interpolation-filters="sRGB">
<feFlood flood-opacity="0" result="BackgroundImageFix"/>
<feColorMatrix in="SourceAlpha" type="matrix" values="0 0 0 0 0 0 0 0 0 0 0 0 0 0 0 0 0 0 127 0" result="hardAlpha"/>
<feOffset dy="4"/>
<feGaussianBlur stdDeviation="7.5"/>
<feComposite in2="hardAlpha" operator="out"/>
<feColorMatrix type="matrix" values="0 0 0 0 0 0 0 0 0 0 0 0 0 0 0 0 0 0 0.25 0"/>
<feBlend mode="normal" in2="BackgroundImageFix" result="effect1_dropShadow_92_233"/>
<feBlend mode="normal" in="SourceGraphic" in2="effect1_dropShadow_92_233" result="shape"/>
</filter>
<filter id="filter17_d_92_233" x="259.1" y="0.687897" width="48.447" height="51.2592" filterUnits="userSpaceOnUse" color-interpolation-filters="sRGB">
<feFlood flood-opacity="0" result="BackgroundImageFix"/>
<feColorMatrix in="SourceAlpha" type="matrix" values="0 0 0 0 0 0 0 0 0 0 0 0 0 0 0 0 0 0 127 0" result="hardAlpha"/>
<feOffset dy="4"/>
<feGaussianBlur stdDeviation="7.5"/>
<feComposite in2="hardAlpha" operator="out"/>
<feColorMatrix type="matrix" values="0 0 0 0 0 0 0 0 0 0 0 0 0 0 0 0 0 0 0.25 0"/>
<feBlend mode="normal" in2="BackgroundImageFix" result="effect1_dropShadow_92_233"/>
<feBlend mode="normal" in="SourceGraphic" in2="effect1_dropShadow_92_233" result="shape"/>
</filter>
<filter id="filter18_d_92_233" x="283.949" y="0.720901" width="52.869" height="51.2263" filterUnits="userSpaceOnUse" color-interpolation-filters="sRGB">
<feFlood flood-opacity="0" result="BackgroundImageFix"/>
<feColorMatrix in="SourceAlpha" type="matrix" values="0 0 0 0 0 0 0 0 0 0 0 0 0 0 0 0 0 0 127 0" result="hardAlpha"/>
<feOffset dy="4"/>
<feGaussianBlur stdDeviation="7.5"/>
<feComposite in2="hardAlpha" operator="out"/>
<feColorMatrix type="matrix" values="0 0 0 0 0 0 0 0 0 0 0 0 0 0 0 0 0 0 0.25 0"/>
<feBlend mode="normal" in2="BackgroundImageFix" result="effect1_dropShadow_92_233"/>
<feBlend mode="normal" in="SourceGraphic" in2="effect1_dropShadow_92_233" result="shape"/>
</filter>
<filter id="filter19_d_92_233" x="309.656" y="0.716454" width="51.2197" height="51.2307" filterUnits="userSpaceOnUse" color-interpolation-filters="sRGB">
<feFlood flood-opacity="0" result="BackgroundImageFix"/>
<feColorMatrix in="SourceAlpha" type="matrix" values="0 0 0 0 0 0 0 0 0 0 0 0 0 0 0 0 0 0 127 0" result="hardAlpha"/>
<feOffset dy="4"/>
<feGaussianBlur stdDeviation="7.5"/>
<feComposite in2="hardAlpha" operator="out"/>
<feColorMatrix type="matrix" values="0 0 0 0 0 0 0 0 0 0 0 0 0 0 0 0 0 0 0.25 0"/>
<feBlend mode="normal" in2="BackgroundImageFix" result="effect1_dropShadow_92_233"/>
<feBlend mode="normal" in="SourceGraphic" in2="effect1_dropShadow_92_233" result="shape"/>
</filter>
<filter id="filter20_d_92_233" x="331.419" y="0.720901" width="50.2786" height="51.2263" filterUnits="userSpaceOnUse" color-interpolation-filters="sRGB">
<feFlood flood-opacity="0" result="BackgroundImageFix"/>
<feColorMatrix in="SourceAlpha" type="matrix" values="0 0 0 0 0 0 0 0 0 0 0 0 0 0 0 0 0 0 127 0" result="hardAlpha"/>
<feOffset dy="4"/>
<feGaussianBlur stdDeviation="7.5"/>
<feComposite in2="hardAlpha" operator="out"/>
<feColorMatrix type="matrix" values="0 0 0 0 0 0 0 0 0 0 0 0 0 0 0 0 0 0 0.25 0"/>
<feBlend mode="normal" in2="BackgroundImageFix" result="effect1_dropShadow_92_233"/>
<feBlend mode="normal" in="SourceGraphic" in2="effect1_dropShadow_92_233" result="shape"/>
</filter>
<filter id="filter21_d_92_233" x="351.451" y="0.720901" width="54.552" height="51.2263" filterUnits="userSpaceOnUse" color-interpolation-filters="sRGB">
<feFlood flood-opacity="0" result="BackgroundImageFix"/>
<feColorMatrix in="SourceAlpha" type="matrix" values="0 0 0 0 0 0 0 0 0 0 0 0 0 0 0 0 0 0 127 0" result="hardAlpha"/>
<feOffset dy="4"/>
<feGaussianBlur stdDeviation="7.5"/>
<feComposite in2="hardAlpha" operator="out"/>
<feColorMatrix type="matrix" values="0 0 0 0 0 0 0 0 0 0 0 0 0 0 0 0 0 0 0.25 0"/>
<feBlend mode="normal" in2="BackgroundImageFix" result="effect1_dropShadow_92_233"/>
<feBlend mode="normal" in="SourceGraphic" in2="effect1_dropShadow_92_233" result="shape"/>
</filter>
<filter id="filter22_d_92_233" x="374.105" y="0.720901" width="52.869" height="51.2263" filterUnits="userSpaceOnUse" color-interpolation-filters="sRGB">
<feFlood flood-opacity="0" result="BackgroundImageFix"/>
<feColorMatrix in="SourceAlpha" type="matrix" values="0 0 0 0 0 0 0 0 0 0 0 0 0 0 0 0 0 0 127 0" result="hardAlpha"/>
<feOffset dy="4"/>
<feGaussianBlur stdDeviation="7.5"/>
<feComposite in2="hardAlpha" operator="out"/>
<feColorMatrix type="matrix" values="0 0 0 0 0 0 0 0 0 0 0 0 0 0 0 0 0 0 0.25 0"/>
<feBlend mode="normal" in2="BackgroundImageFix" result="effect1_dropShadow_92_233"/>
<feBlend mode="normal" in="SourceGraphic" in2="effect1_dropShadow_92_233" result="shape"/>
</filter>
</defs>
</svg>
