<svg width="400" height="75" viewBox="0 0 400 75" fill="none" xmlns="http://www.w3.org/2000/svg">
<g clip-path="url(#clip0_3_3)">
<path d="M141.47 35.88C141.09 30.6 137.19 25.2646 128.87 18.6923C129.269 17.7692 129.464 14.1969 125.323 12.0369C114.887 6.6 92.4812 0.876926 75.647 0.0369263C75.8142 0.480003 76.2042 1.72614 76.492 2.64922C57.9235 1.90109 39.3253 2.41305 20.8268 4.18153C15.7571 4.67076 0 6.81231 0 6.81231L35.609 21.8031C31.8113 22.6431 27.9486 23.5569 24.0674 24.5723C20.1862 25.5877 8.36602 29.52 8.36602 29.52L22.6003 32.5754C29.6943 34.0892 49.6855 38.2892 58.2186 40.2277C57.0858 43.6615 49.7412 67.4307 49.7412 67.4307C49.7412 67.4307 59.2585 57.5354 62.2113 54.7662C65.9254 51.2492 67.2067 50.0584 68.3302 49.1446C67.9031 54.2031 66.9468 65.0677 66.6961 67.7446C66.5011 69.8862 66.9282 72.1015 68.1817 73.4031C68.872 74.0244 69.6886 74.491 70.5761 74.7713C71.4636 75.0516 72.4013 75.139 73.3257 75.0277C75.0808 74.6827 76.7157 73.8907 78.0705 72.7292C83.7995 68.1138 98.1638 55.4585 110.318 43.8646C110.996 43.7631 111.674 43.6707 112.361 43.5969C120.718 42.6738 128.777 44.0031 130.152 48.1015C131.08 50.7969 130.152 52.4584 129.288 55.0338C131.584 52.9907 133.775 50.8342 135.853 48.5723C138.202 45.6831 141.832 41.1877 141.47 35.9538" fill="#1D1D1B"/>
<path d="M76.3435 14.9539H76.5014C76.0092 14.0308 75.5728 13.0339 75.22 12.3323C82.0539 11.52 97.876 12.3323 104.19 16.3108C110.504 20.2892 116.261 21.6461 120.56 20.7046C120.081 21.6226 119.421 22.4356 118.619 23.0954C117.011 23.4396 115.353 23.4897 113.726 23.2431C111.934 26.1508 107.542 25.7908 100.615 29.2246C90.9062 34.0406 81.565 39.5569 72.6665 45.7292C72.388 49.1077 71.7937 55.6707 71.738 56.6954L85.4431 51.7569L82.6575 49.44L94.3848 46.7908C96.2418 43.7631 110.81 29.9077 113.104 28.2185C113.876 28.0469 114.657 27.9175 115.444 27.8308C118.486 25.1091 121.851 22.7657 125.463 20.8523C125.527 20.6587 125.58 20.4614 125.62 20.2615C125.825 19.0246 125.732 17.2246 124.079 16.3754C96.149 1.9754 44.4672 6.6277 16.6392 8.84309L42.8794 20.2154C55.4424 17.6769 67.0211 15.96 76.3064 14.9446" fill="#C8B69A"/>
<path d="M82.6667 49.4492L85.4523 51.7662L71.7194 56.6862C71.7194 56.6862 70.9766 65.4554 70.7909 67.5231C70.5309 70.2923 72.9451 71.2154 75.2293 69.3693C80.3362 65.2154 92.212 55.0431 103.28 44.8338L82.6667 49.4492Z" fill="#877B63"/>
<path d="M107.171 24.8769C101.962 25.6985 99.4452 22.1077 98.9902 18.2677C97.1332 17.9538 95.2761 17.7785 93.5677 17.6308C93.4841 22.4215 96.7711 27.6369 104.71 26.4554C107.644 26.0215 109.055 25.0431 109.705 24.0277C108.936 24.4772 108.083 24.7661 107.198 24.8769" fill="white"/>
<path d="M125.472 20.8615C114.58 26.4 105.824 37.7077 102.788 41.8154C111.776 38.9354 130.347 37.3754 133.346 46.3385C138.267 40.0062 143.244 34.5046 125.472 20.8615ZM120.179 28.2462C120.741 27.1662 121.688 26.3334 122.835 25.9108C124.622 26.6294 126.213 27.7587 127.477 29.2062L120.179 28.2462Z" fill="#F5F0E0"/>
<path d="M95.2111 27.7015C91.497 25.6339 90.2899 21.5908 90.6985 17.8154C84.7374 18.2585 52.6289 20.76 23.6682 28.3569C33.037 29.9723 63.4369 36.96 63.4369 36.96C63.4369 36.96 60.1128 46.7077 58.3951 52.9108C69.5374 43.2831 76.8263 37.6246 95.2204 27.7015H95.2111ZM60.7256 27.9231L83.4838 25.4308L71.1902 34.357L71.4501 30.7108L60.7256 27.9231Z" fill="#E30613"/>
<path d="M277.574 60.7292L282.365 36.0831H305.625L301.985 41.6216H288.633L285.689 56.7231C285.469 57.8506 284.862 58.867 283.971 59.5979C283.079 60.3288 281.96 60.7288 280.805 60.7292H277.574Z" fill="#F5F0E0"/>
<path d="M167.441 36.0646H151.851C151.796 36.1939 151.749 36.3416 151.703 36.48C153.272 37.0616 155.547 38.3262 154.358 40.2369L140.941 60.7292H146.512C147.358 60.728 148.189 60.5131 148.928 60.1046C149.667 59.696 150.29 59.1073 150.737 58.3939L151.777 56.7231H165.454L166.466 60.7292H174.21L167.441 36.0646ZM154.869 51.7015L160.914 42.0277H161.749L164.154 51.7015H154.869Z" fill="#F5F0E0"/>
<path d="M233.942 36.0646H218.427C218.371 36.1939 218.324 36.3416 218.278 36.48C219.727 37.0246 221.788 38.1139 221.138 39.8216L207.424 60.7292H212.995C213.84 60.728 214.672 60.5131 215.411 60.1046C216.15 59.696 216.772 59.1073 217.22 58.3939L218.269 56.7231H231.937L232.958 60.7292H240.702L233.942 36.0646ZM221.37 51.6831L227.415 42.0092H228.223L230.674 51.6831H221.37Z" fill="#F5F0E0"/>
<path d="M324.427 36.0646H308.837C308.791 36.1939 308.744 36.3416 308.689 36.48C310.239 37.0523 312.449 38.2523 311.409 40.1262L297.862 60.7292H303.433C304.279 60.728 305.11 60.5131 305.849 60.1046C306.588 59.696 307.211 59.1073 307.658 58.3939L308.707 56.7231H322.431L323.452 60.7292H331.196L324.427 36.0646ZM311.846 51.6831L317.89 42.0092H318.717L321.168 51.6831H311.846Z" fill="#F5F0E0"/>
<path d="M394.986 55.7077L398.802 36.0646H370.436L370.287 36.48C371.829 37.0523 373.648 38.0954 372.998 40.0892L366.657 55.6892H362.014L360.259 64.7169H363.5C364.655 64.7165 365.774 64.3165 366.665 63.5856C367.556 62.8547 368.164 61.8383 368.384 60.7108H391.597L390.817 64.7169H398.161L399.916 55.6892L394.986 55.7077ZM387.641 55.7077H374.642L380.585 41.1046H390.492L387.641 55.7077Z" fill="#F5F0E0"/>
<path d="M204.313 47.6677L203.839 47.5385L203.923 47.1877L204.387 47.0769C205.394 46.8084 206.304 46.2647 207.015 45.5077C207.577 44.9292 208.018 44.2452 208.311 43.4955C208.605 42.7459 208.745 41.9456 208.724 41.1415C208.724 36.96 204.731 36.0831 201.379 36.0831H178.407C178.351 36.2123 178.305 36.36 178.259 36.4984C179.828 37.08 181.341 38.0307 180.923 40.1907L176.94 60.6923H197.526C201.184 60.6923 203.793 59.7692 205.511 57.9231C206.829 56.383 207.512 54.4046 207.424 52.3846C207.424 50.0308 206.384 48.2954 204.313 47.6677ZM198.612 54.6277C198.237 55.0458 197.771 55.3736 197.25 55.5863C196.729 55.799 196.166 55.891 195.603 55.8554H185.232L186.337 50.2246H196.551C197.247 50.2246 199.336 50.2246 199.336 52.3661C199.387 53.1834 199.128 53.9899 198.612 54.6277ZM199.605 44.9908C199.279 45.35 198.877 45.6324 198.427 45.8177C197.977 46.0029 197.492 46.0862 197.006 46.0616H187.126L188.129 41.0031H197.823C199.522 41.0031 200.385 41.6769 200.385 42.9969C200.379 43.7339 200.102 44.4431 199.605 44.9908Z" fill="#F5F0E0"/>
<path d="M269.728 36.0646L267.871 45.3508H253.757L255.614 36.0646H244.936C244.89 36.1939 244.843 36.3416 244.788 36.48C246.366 37.0616 247.889 38.0216 247.452 40.2369L243.441 60.7108H246.691C247.845 60.7108 248.963 60.3121 249.854 59.583C250.745 58.8539 251.353 57.8397 251.575 56.7138L252.717 50.917H266.831L264.899 60.7477H272.244L277.072 36.1015L269.728 36.0646Z" fill="#F5F0E0"/>
<path d="M357.111 36.0646H335.384C335.328 36.1939 335.282 36.3416 335.235 36.48C336.804 37.0616 338.327 38.0216 337.9 40.2369L333.917 60.7108H337.157C338.314 60.7099 339.434 60.3086 340.325 59.5759C341.217 58.8431 341.823 57.8246 342.041 56.6954L342.858 52.477H354.251C358.439 52.477 361.392 51.3969 363.295 49.1816C364.847 47.2137 365.635 44.7562 365.515 42.2585C365.515 38.0493 362.859 36.0646 357.111 36.0646ZM356.461 46.0892C356.068 46.5908 355.556 46.9886 354.972 47.2477C354.387 47.5068 353.748 47.6193 353.109 47.5754H343.824L345.031 41.4369H354.149C356.201 41.4369 357.232 42.2123 357.232 43.7354C357.236 44.5876 356.966 45.4188 356.461 46.1077V46.0892Z" fill="#F5F0E0"/>
<path d="M160.635 24.9231L158.24 19.9938L157.042 21.1846L156.215 24.9231H152.891L155.732 12.1292H159.047L157.952 17.1323L162.836 12.1292H167.098L160.784 18.1108L164.498 24.9231H160.635Z" fill="#F5F0E0"/>
<path d="M166.281 24.9231L169.122 12.1292H172.437L170.84 19.4492L177.655 12.1754H181.09L178.249 24.9692H174.916L176.615 17.3354L169.484 24.9692L166.281 24.9231Z" fill="#F5F0E0"/>
<path d="M194.211 12.1292L193.57 15H186.838L186.439 16.68H188.937C191.722 16.68 193.199 18.2954 193.199 20.2523C193.199 22.2092 191.945 24.9508 187.72 24.9508H181.332L184.118 12.1569L194.211 12.1292ZM185.854 19.5139L185.315 22.0246H188.036C189.132 22.0246 189.809 21.3969 189.809 20.5661C189.812 20.4186 189.782 20.2722 189.723 20.1367C189.664 20.0013 189.577 19.8798 189.467 19.7803C189.358 19.6809 189.228 19.6057 189.087 19.5597C188.946 19.5138 188.796 19.4982 188.649 19.5139H185.854Z" fill="#F5F0E0"/>
<path d="M194.517 24.9231L197.349 12.1292H206.792L206.133 15H200.033L199.596 17.0031H205.576L204.935 19.8738H198.955L198.473 22.0431H204.592L203.951 24.9231H194.517Z" fill="#F5F0E0"/>
<path d="M206.653 24.9231L209.494 12.1292H215.725C216.221 12.109 216.717 12.19 217.181 12.3674C217.645 12.5449 218.067 12.8149 218.422 13.1608C218.777 13.5067 219.057 13.9213 219.245 14.3789C219.432 14.8365 219.524 15.3275 219.513 15.8215C219.513 17.6677 218.25 20.6585 214.007 20.6585H210.915L209.986 24.9508L206.653 24.9231ZM214.183 17.7508C214.411 17.7696 214.641 17.7431 214.858 17.6726C215.075 17.6022 215.277 17.4892 215.45 17.3405C215.623 17.1918 215.764 17.0102 215.865 16.8064C215.967 16.6027 216.026 16.3808 216.04 16.1538C216.038 15.9878 216 15.8241 215.929 15.6735C215.859 15.523 215.757 15.3889 215.631 15.28C215.505 15.1711 215.357 15.0899 215.197 15.0417C215.037 14.9934 214.869 14.9792 214.703 15H212.14L211.518 17.7692L214.183 17.7508Z" fill="#F5F0E0"/>
<path d="M220.414 19.3385C220.402 18.3505 220.592 17.3704 220.972 16.4575C221.352 15.5447 221.915 14.718 222.626 14.0276C223.337 13.3372 224.181 12.7974 225.108 12.441C226.035 12.0845 227.025 11.9188 228.018 11.9539C231.491 11.9539 233.302 13.8923 233.979 15.8862L230.776 16.92C230.596 16.3003 230.209 15.7599 229.679 15.3875C229.15 15.0151 228.508 14.8329 227.86 14.8708C227.314 14.891 226.778 15.0182 226.281 15.245C225.785 15.4718 225.338 15.7939 224.967 16.1927C224.597 16.5915 224.308 17.0592 224.12 17.5689C223.931 18.0786 223.845 18.6204 223.868 19.1631C223.858 19.5854 223.936 20.0051 224.098 20.3955C224.26 20.786 224.502 21.1387 224.809 21.4313C225.115 21.7238 225.48 21.9498 225.879 22.0948C226.278 22.2399 226.703 22.3008 227.127 22.2739C227.674 22.2554 228.209 22.1127 228.692 21.8567C229.175 21.6007 229.592 21.2382 229.912 20.7969L232.494 22.4862C231.845 23.3417 231.003 24.0327 230.034 24.5027C229.066 24.9727 228 25.2085 226.923 25.1908C223.311 25.1539 220.414 22.9108 220.414 19.3385Z" fill="#F5F0E0"/>
<path d="M242.624 24.9231L244.825 15H239.476L237.276 24.9231H233.961L236.793 12.1292H248.78L245.948 24.9231H242.624Z" fill="#F5F0E0"/>
<path d="M249.579 19.3385C249.578 18.3538 249.776 17.3789 250.161 16.4714C250.545 15.5638 251.108 14.7418 251.816 14.0538C252.525 13.3657 253.365 12.8255 254.286 12.4648C255.208 12.1042 256.193 11.9305 257.183 11.9539C260.897 11.9539 263.683 14.2523 263.683 17.7323C263.693 18.7232 263.503 19.706 263.123 20.6222C262.743 21.5384 262.182 22.3692 261.472 23.0651C260.762 23.7611 259.919 24.308 258.993 24.6731C258.066 25.0383 257.075 25.2144 256.078 25.1908C252.448 25.1538 249.579 22.8554 249.579 19.3385ZM260.257 17.9446C260.268 17.5228 260.191 17.1032 260.03 16.7128C259.869 16.3223 259.628 15.9695 259.322 15.6768C259.016 15.3842 258.652 15.158 258.254 15.0129C257.855 14.8678 257.43 14.8068 257.007 14.8338C256.463 14.8539 255.928 14.9813 255.433 15.2086C254.939 15.436 254.495 15.7586 254.127 16.158C253.759 16.5573 253.474 17.0253 253.289 17.5348C253.105 18.0444 253.024 18.5853 253.051 19.1261C253.04 19.5496 253.118 19.9708 253.28 20.3626C253.442 20.7544 253.685 21.1082 253.993 21.4012C254.3 21.6941 254.666 21.9198 255.067 22.0638C255.468 22.2077 255.895 22.2667 256.32 22.2369C256.865 22.218 257.401 22.0915 257.896 21.8647C258.392 21.638 258.837 21.3155 259.206 20.916C259.575 20.5166 259.861 20.0482 260.046 19.538C260.231 19.0279 260.312 18.4862 260.285 17.9446H260.257Z" fill="#F5F0E0"/>
<path d="M264.584 24.9231L267.369 12.1292H273.609C274.105 12.1089 274.6 12.19 275.064 12.3675C275.527 12.545 275.949 12.8151 276.303 13.1612C276.658 13.5073 276.937 13.922 277.123 14.3796C277.31 14.8371 277.4 15.3279 277.388 15.8215C277.388 17.6677 276.135 20.6584 271.891 20.6584H268.799L267.871 24.9507L264.584 24.9231ZM272.114 17.7508C272.342 17.7709 272.572 17.7453 272.79 17.6753C273.008 17.6053 273.21 17.4925 273.383 17.3435C273.556 17.1946 273.698 17.0125 273.799 16.8081C273.9 16.6037 273.958 16.3812 273.971 16.1538C273.97 15.9882 273.933 15.8247 273.864 15.6741C273.794 15.5236 273.693 15.3894 273.568 15.2803C273.443 15.1713 273.295 15.0899 273.136 15.0416C272.977 14.9933 272.809 14.9791 272.643 15H270.099L269.486 17.7692L272.114 17.7508Z" fill="#F5F0E0"/>
<path d="M280.638 24.9231L282.82 15H279.208L279.867 12.1292H290.434L289.793 15H286.181L283.934 24.9231H280.638Z" fill="#F5F0E0"/>
<path d="M304.51 24.9231L304.278 23.0769H299.199L298.178 24.9231H294.241L301.92 12.1292H306.089L308.122 24.9231H304.51ZM303.433 15.3877L300.722 20.2062H304.009L303.433 15.3877Z" fill="#F5F0E0"/>
<path d="M309.831 24.9231L312.719 12.1292H318.949C319.446 12.1076 319.942 12.1877 320.407 12.3647C320.871 12.5416 321.294 12.8115 321.649 13.1578C322.005 13.504 322.285 13.9191 322.472 14.3773C322.659 14.8356 322.749 15.3271 322.737 15.8215C322.737 17.6677 321.484 20.6585 317.231 20.6585H314.148L313.22 24.9508L309.831 24.9231ZM317.361 17.7508C317.589 17.7696 317.818 17.743 318.036 17.6726C318.253 17.6021 318.454 17.4892 318.627 17.3405C318.8 17.1918 318.942 17.0102 319.043 16.8064C319.145 16.6027 319.204 16.3808 319.218 16.1538C319.217 15.9873 319.18 15.8229 319.11 15.6716C319.04 15.5203 318.939 15.3856 318.812 15.2765C318.685 15.1673 318.537 15.0862 318.377 15.0385C318.216 14.9908 318.047 14.9777 317.881 15H315.318L314.696 17.7692L317.361 17.7508Z" fill="#F5F0E0"/>
<path d="M323.016 24.9231L325.801 12.1292H335.245L334.585 15H328.503L328.058 17.0031H334.075L333.434 19.8738H327.454L326.971 22.0431H333.09L332.45 24.9231H323.016Z" fill="#F5F0E0"/>
<path d="M343.815 24.9231L344.957 19.7815H339.646L338.504 24.9231H335.189L338.021 12.1292H341.345L340.286 16.9015H345.635L346.693 12.1292H350.008L347.223 24.9231H343.815Z" fill="#F5F0E0"/>
<path d="M359.145 24.9231L358.913 23.0769H353.843L352.812 24.9231H348.875L356.564 12.1292H360.733L362.757 24.9231H359.145ZM358.086 15.3877L355.384 20.2062H358.662L358.086 15.3877Z" fill="#F5F0E0"/>
</g>
<defs>
<clipPath id="clip0_3_3">
<rect width="400" height="75" fill="white"/>
</clipPath>
</defs>
</svg>
