<svg width="39" height="22" viewBox="0 0 39 22" fill="none" xmlns="http://www.w3.org/2000/svg">
<g filter="url(#filter0_i_58_168)">
<path d="M38.1058 1.48983C38.3783 0.630315 38.1058 0 36.8174 0H32.5492C31.4632 0 30.9669 0.545287 30.6944 1.14418C30.6944 1.14418 28.5244 6.17005 25.4493 9.42883C24.4567 10.3771 24.0032 10.6765 23.4622 10.6765C23.1916 10.6765 22.7985 10.3771 22.7985 9.51756V1.48983C22.7985 0.458411 22.4851 0 21.5801 0H14.8733C14.196 0 13.7873 0.476895 13.7873 0.931608C13.7873 1.90758 15.3248 2.13309 15.4825 4.88355V10.8503C15.4825 12.1571 15.2353 12.3956 14.6904 12.3956C13.2443 12.3956 9.72546 7.3512 7.63712 1.57671C7.23035 0.454714 6.81969 0.00184918 5.72979 0.00184918H1.46359C0.243283 0.00184918 0 0.547136 0 1.14603C0 2.22181 1.44607 7.54529 6.736 14.586C10.2626 19.3937 15.2275 22 19.7506 22C22.4618 22 22.7965 21.4214 22.7965 20.4233V16.7893C22.7965 15.6322 23.0554 15.3993 23.9137 15.3993C24.5443 15.3993 25.6303 15.7024 28.1624 18.0185C31.0545 20.7652 31.5333 21.9982 33.1584 21.9982H37.4246C38.643 21.9982 39.2522 21.4196 38.9018 20.2773C38.5184 19.1405 37.1366 17.4861 35.3032 15.5286C34.3067 14.4122 32.8178 13.2107 32.3643 12.61C31.7318 11.8355 31.9148 11.4935 32.3643 10.8059C32.3663 10.8078 37.5647 3.85397 38.1058 1.48983Z" fill="#EBEBEB"/>
</g>
<defs>
<filter id="filter0_i_58_168" x="0" y="0" width="39" height="26" filterUnits="userSpaceOnUse" color-interpolation-filters="sRGB">
<feFlood flood-opacity="0" result="BackgroundImageFix"/>
<feBlend mode="normal" in="SourceGraphic" in2="BackgroundImageFix" result="shape"/>
<feColorMatrix in="SourceAlpha" type="matrix" values="0 0 0 0 0 0 0 0 0 0 0 0 0 0 0 0 0 0 127 0" result="hardAlpha"/>
<feOffset dy="4"/>
<feGaussianBlur stdDeviation="2"/>
<feComposite in2="hardAlpha" operator="arithmetic" k2="-1" k3="1"/>
<feColorMatrix type="matrix" values="0 0 0 0 0 0 0 0 0 0 0 0 0 0 0 0 0 0 0.25 0"/>
<feBlend mode="normal" in2="shape" result="effect1_innerShadow_58_168"/>
</filter>
</defs>
</svg>
