<svg width="28" height="19" viewBox="0 0 28 19" fill="none" xmlns="http://www.w3.org/2000/svg">
<g filter="url(#filter0_i_58_164)">
<path d="M14.0901 0H14.2459C15.6845 0.00507163 22.9737 0.0557882 24.9391 0.566332C25.5332 0.722147 26.0746 1.02586 26.5092 1.44712C26.9438 1.86838 27.2563 2.39243 27.4155 2.9669C27.5922 3.60931 27.7165 4.45965 27.8005 5.33704L27.818 5.51286L27.8565 5.9524L27.8705 6.12821C27.9843 7.67337 27.9983 9.12047 28 9.4366V9.5634C27.9983 9.89136 27.9825 11.4365 27.8565 13.0459L27.8425 13.2234L27.8267 13.3992C27.7392 14.3662 27.6097 15.3265 27.4155 16.0331C27.2567 16.6078 26.9444 17.1321 26.5098 17.5534C26.0751 17.9748 25.5334 18.2783 24.9391 18.4337C22.9089 18.9611 15.1927 18.9983 14.1234 19H13.8749C13.3341 19 11.0974 18.9899 8.7523 18.9121L8.45478 18.9019L8.30252 18.8952L8.00325 18.8834L7.70398 18.8715C5.76136 18.7887 3.91149 18.6551 3.05919 18.432C2.46501 18.2768 1.92348 17.9735 1.48886 17.5525C1.05424 17.1314 0.741778 16.6075 0.582786 16.0331C0.388524 15.3281 0.259016 14.3662 0.171511 13.3992L0.15751 13.2217L0.143509 13.0459C0.0571369 11.9004 0.00927535 10.7525 0 9.60397L0 9.39603C0.00350022 9.03257 0.0175011 7.77649 0.112007 6.39025L0.124258 6.21612L0.129508 6.12821L0.143509 5.9524L0.182011 5.51286L0.199512 5.33704C0.283518 4.45965 0.407775 3.60762 0.584537 2.9669C0.74326 2.3922 1.0556 1.8679 1.49024 1.44657C1.92488 1.02524 2.46655 0.721679 3.06094 0.566332C3.91324 0.346561 5.76311 0.211318 7.70573 0.126791L8.00325 0.114957L8.30427 0.104814L8.45478 0.0997422L8.75405 0.0879085C10.4196 0.0361349 12.0859 0.00739251 13.7524 0.00169062H14.0901V0ZM11.2007 5.42664V13.5717L18.4759 9.50084L11.2007 5.42664Z" fill="#EBEBEB"/>
</g>
<defs>
<filter id="filter0_i_58_164" x="0" y="0" width="28" height="23" filterUnits="userSpaceOnUse" color-interpolation-filters="sRGB">
<feFlood flood-opacity="0" result="BackgroundImageFix"/>
<feBlend mode="normal" in="SourceGraphic" in2="BackgroundImageFix" result="shape"/>
<feColorMatrix in="SourceAlpha" type="matrix" values="0 0 0 0 0 0 0 0 0 0 0 0 0 0 0 0 0 0 127 0" result="hardAlpha"/>
<feOffset dy="4"/>
<feGaussianBlur stdDeviation="2"/>
<feComposite in2="hardAlpha" operator="arithmetic" k2="-1" k3="1"/>
<feColorMatrix type="matrix" values="0 0 0 0 0 0 0 0 0 0 0 0 0 0 0 0 0 0 0.25 0"/>
<feBlend mode="normal" in2="shape" result="effect1_innerShadow_58_164"/>
</filter>
</defs>
</svg>
